<svg xmlns="http://www.w3.org/2000/svg" viewBox="0 0 30 30"><defs><style>.cls-1{fill:#556f7b;}.cls-1,.cls-2{fill-rule:evenodd;}.cls-2{fill:#fff;}</style></defs><title>default_profile_image</title><g id="Layer_2" data-name="Layer 2"><g id="Layer_1-2" data-name="Layer 1"><path class="cls-1" d="M15,0A15,15,0,1,1,0,15,14.94,14.94,0,0,1,15,0Zm-.34,28.43A13.83,13.83,0,0,0,24,25a.79.79,0,0,0,.2-1.14,9.89,9.89,0,0,0-9.26-5.63,9.9,9.9,0,0,0-9.08,5.69A.71.71,0,0,0,6,25,13.29,13.29,0,0,0,14.67,28.43Zm.44-22.55a5.38,5.38,0,0,0-.25,10.75,5.42,5.42,0,0,0,5.51-5.15A5.35,5.35,0,0,0,15.11,5.87Z"/><path class="cls-2" d="M14.67,28.43A13.29,13.29,0,0,1,6,25a.71.71,0,0,1-.18-1,9.9,9.9,0,0,1,9.08-5.69,9.89,9.89,0,0,1,9.26,5.63A.79.79,0,0,1,24,25,13.83,13.83,0,0,1,14.67,28.43Z"/><path class="cls-2" d="M15.11,5.87a5.35,5.35,0,0,1,5.26,5.6A5.37,5.37,0,1,1,9.64,11,5.36,5.36,0,0,1,15.11,5.87Z"/></g></g></svg>